HIERARCHY
ROOT Hips
{
  OFFSET 52.3944 84.5858 34.6055
  CHANNELS 6 Xposition Yposition Zposition Zrotation Xrotation Yrotation
  JOINT spine
  {
    OFFSET 0 5.95438 0.342407
    CHANNELS 3 Zrotation Xrotation Yrotation
    JOINT spine1
    {
      OFFSET 0 8.85602 0
      CHANNELS 3 Zrotation Xrotation Yrotation
      JOINT spine2
      {
        OFFSET 0 8.48567 0
        CHANNELS 3 Zrotation Xrotation Yrotation
        JOINT Neck
        {
          OFFSET 0 21.7863 1.0387
          CHANNELS 3 Zrotation Xrotation Yrotation
          JOINT Head
          {
            OFFSET 0 6.5822 0
            CHANNELS 3 Zrotation Xrotation Yrotation
            End Site
            {
              OFFSET 0 15.9326 -5.25436
            }
          }
        }
        JOINT RightShoulder
        {
          OFFSET -3.57307 9.16386 -0.497525
          CHANNELS 3 Zrotation Xrotation Yrotation
          JOINT RightArm
          {
            OFFSET 0 12.0192 0
            CHANNELS 3 Zrotation Xrotation Yrotation
            JOINT RightArmRoll
            {
              OFFSET 0 6.06755 0
              CHANNELS 3 Zrotation Xrotation Yrotation
              JOINT RightForeArm
              {
                OFFSET 0 17.6726 0
                CHANNELS 3 Zrotation Xrotation Yrotation
                JOINT RightForeArmRoll
                {
                  OFFSET 0 6.80872 0
                  CHANNELS 3 Zrotation Xrotation Yrotation
                  JOINT RightHand
                  {
                    OFFSET 0 13.6636 0
                    CHANNELS 3 Zrotation Xrotation Yrotation
                    End Site
                    {
                      OFFSET 0 0 0
                    }
                  }
                }
              }
            }
          }
        }
        JOINT LeftShoulder
        {
          OFFSET 3.57307 9.16386 -0.497525
          CHANNELS 3 Zrotation Xrotation Yrotation
          JOINT LeftArm
          {
            OFFSET 0 12.0192 0
            CHANNELS 3 Zrotation Xrotation Yrotation
            JOINT LeftArmRoll
            {
              OFFSET 0 6.06755 0
              CHANNELS 3 Zrotation Xrotation Yrotation
              JOINT LeftForeArm
              {
                OFFSET 0 17.6726 0
                CHANNELS 3 Zrotation Xrotation Yrotation
                JOINT LeftForeArmRoll
                {
                  OFFSET 0 6.80872 0
                  CHANNELS 3 Zrotation Xrotation Yrotation
                  JOINT LeftHand
                  {
                    OFFSET 0 13.6636 0
                    CHANNELS 3 Zrotation Xrotation Yrotation
                    End Site
                    {
                      OFFSET 0 0 0
                    }
                  }
                }
              }
            }
          }
        }
      }
    }
  }
  JOINT RightUpLeg
  {
    OFFSET -5.27774 -0.967797 -0.811858
    CHANNELS 3 Zrotation Xrotation Yrotation
    JOINT RightUpLegRoll
    {
      OFFSET 0 16.0214 0
      CHANNELS 3 Zrotation Xrotation Yrotation
      JOINT RightLeg
      {
        OFFSET 0 -19.8401 0
        CHANNELS 3 Zrotation Xrotation Yrotation
        JOINT RightLegRoll
        {
          OFFSET 0 19.905 0
          CHANNELS 3 Zrotation Xrotation Yrotation
          JOINT RightFoot
          {
            OFFSET 0 16.5675 0
            CHANNELS 3 Zrotation Xrotation Yrotation
            JOINT RightToeBase
            {
              OFFSET 0 13.8496 0
              CHANNELS 3 Zrotation Xrotation Yrotation
              End Site
              {
                OFFSET 0.00587034 6.70727 -0.773117
              }
            }
          }
        }
      }
    }
  }
  JOINT LeftUpLeg
  {
    OFFSET 5.27774 -0.967797 -0.811858
    CHANNELS 3 Zrotation Xrotation Yrotation
    JOINT LeftUpLegRoll
    {
      OFFSET 0 16.0215 0
      CHANNELS 3 Zrotation Xrotation Yrotation
      JOINT LeftLeg
      {
        OFFSET 0 19.84 0
        CHANNELS 3 Zrotation Xrotation Yrotation
        JOINT LeftLegRoll
        {
          OFFSET 0 20.089 0
          CHANNELS 3 Zrotation Xrotation Yrotation
          JOINT LeftFoot
          {
            OFFSET 0 16.3835 0
            CHANNELS 3 Zrotation Xrotation Yrotation
            JOINT LeftToeBase
            {
              OFFSET 0 13.8496 0
              CHANNELS 3 Zrotation Xrotation Yrotation
              End Site
              {
                OFFSET -0.0263083 6.70727 -0.773117
              }
            }
          }
        }
      }
    }
  }
}
MOTION
Frames: 13
Frame Time: 0.00208333
48.3815 68.751 3.94636 -9.47852 35.2782 10.6827 1.08318 1.67403 0.157789 2.17405 7.35387 0.142411 2.17775 8.99828 0.105699 -5.23948 22.3562 -2.50644 7.4362 2.27251 -4.23672 71.4654 1.33948 -0.768 110.138 33.3825 -15.5797 -1.43125e-014 -9.54166e-015 9.54166e-015 -3.66109 -0.0333143 -1.99287 -1.65057e-006 -4.03589e-007 -3.0116 8.03008 -4.95138 0.697633 -68.8982 -2.94814 2.62019 -112.971 35.6521 18.297 -2.62529e-005 -7.03926e-008 2.60515e-006 3.65868 -0.0306405 1.99261 -5.2894e-007 3.16187e-006 3.01161 -8.03009 -4.95139 -0.697639 -78.536 85.2305 -104.434 180 -1.52583e-005 179.535 -179.244 56.4268 176.976 4.92866e-006 3.15806e-006 1.05744 -20.5898 70.0294 21.4008 8.13649 25.2327 -3.48773 59.8326 86.1778 125.631 4.54188e-006 -4.6773e-006 -0.465639 4.33864 -54.5562 4.3168 2.21723e-006 7.55545e-007 -0.768699 17.0669 65.1771 -17.4354 -8.13648 25.2326 3.48773 
48.3762 68.8406 4.02124 -9.46263 35.2631 10.658 1.08065 1.67286 0.157741 2.16895 7.3513 0.142643 2.17264 8.99572 0.106044 -5.24872 22.3293 -2.50711 7.46768 2.29515 -4.23961 71.5727 1.39839 -0.753443 110 33.4099 -15.4573 -7.95139e-015 -9.54166e-015 -0 -3.66227 -0.0334492 -1.99288 -1.65057e-006 -4.03589e-007 -3.0116 8.03008 -4.95138 0.697633 -68.9718 -2.9339 2.61893 -112.841 35.6809 18.1818 -2.62529e-005 -7.03926e-008 2.60515e-006 3.65809 -0.0306407 1.99261 -5.2894e-007 3.16187e-006 3.01161 -8.03009 -4.95139 -0.697639 -80.7927 85.2314 -102.186 180 -1.52583e-005 179.536 -179.234 56.274 176.98 4.92866e-006 3.15806e-006 1.0553 -20.5941 70.0352 21.4063 8.13649 25.2327 -3.48773 62.1962 86.3019 123.277 4.54188e-006 -4.6773e-006 -0.465636 4.3084 -54.4099 4.28706 2.21723e-006 7.55545e-007 -0.764262 17.0694 65.184 -17.4401 -8.13648 25.2326 3.48773 
48.3855 68.9447 4.09515 -9.44654 35.2476 10.633 1.07821 1.67152 0.157692 2.16404 7.34837 0.142867 2.16772 8.99279 0.10638 -5.2617 22.302 -2.50637 7.50208 2.31814 -4.24249 71.6769 1.45839 -0.738063 109.866 33.436 -15.3366 1.59028e-015 -6.36111e-015 -0 -3.66353 -0.0335843 -1.99289 -1.65057e-006 -4.03589e-007 -3.0116 8.03008 -4.95138 0.697633 -69.0443 -2.92068 2.61812 -112.712 35.7095 18.0682 -2.62529e-005 -7.03926e-008 2.60515e-006 3.65744 -0.0306408 1.99261 -5.2894e-007 3.16187e-006 3.01161 -8.03009 -4.95139 -0.697639 -83.0441 85.2254 -99.9421 180 -1.52583e-005 179.536 -179.224 56.1213 176.985 4.92866e-006 3.15806e-006 1.05314 -20.5986 70.0412 21.412 8.13649 25.2327 -3.48773 64.7296 86.4192 120.753 4.54188e-006 -4.6773e-006 -0.465644 4.27889 -54.2635 4.25776 2.21723e-006 7.55545e-007 -0.759818 17.0719 65.191 -17.4449 -8.13648 25.2326 3.48773 
48.3828 69.0225 4.16079 -9.4303 35.2317 10.6078 1.07588 1.67001 0.157639 2.15935 7.34507 0.143079 2.16301 8.98949 0.106702 -5.27769 22.2743 -2.50448 7.53848 2.34166 -4.24536 71.7779 1.51906 -0.722051 109.733 33.4608 -15.2179 3.97569e-015 -3.18055e-015 -9.54166e-015 -3.66485 -0.0337195 -1.9929 -1.65057e-006 -4.03589e-007 -3.0116 8.03008 -4.95138 0.697633 -69.1151 -2.90833 2.61765 -112.586 35.7378 17.9573 -2.62529e-005 -7.03926e-008 2.60515e-006 3.65674 -0.030641 1.99261 -5.2894e-007 3.16187e-006 3.01161 -8.03009 -4.95139 -0.697639 -85.2835 85.2129 -97.7097 180 -1.52583e-005 179.536 -179.216 55.9687 176.99 4.92866e-006 3.15806e-006 1.05096 -20.6031 70.0473 21.4177 8.13649 25.2327 -3.48773 67.4359 86.5287 118.057 4.54188e-006 -4.6773e-006 -0.465664 4.25009 -54.1171 4.2289 2.21723e-006 7.55545e-007 -0.755381 17.0745 65.198 -17.4498 -8.13648 25.2326 3.48773 
48.3884 69.1092 4.22863 -9.41391 35.2153 10.5828 1.07365 1.66831 0.157581 2.15487 7.34141 0.143278 2.15852 8.98582 0.107009 -5.29596 22.2461 -2.50166 7.57597 2.36588 -4.2482 71.8758 1.57996 -0.7056 109.603 33.4845 -15.1015 -1.27222e-014 -6.36111e-015 -0 -3.66621 -0.0338545 -1.9929 -1.65057e-006 -4.03589e-007 -3.0116 8.03008 -4.95138 0.697633 -69.1835 -2.89677 2.6174 -112.463 35.7655 17.8499 -2.62529e-005 -7.03926e-008 2.60515e-006 3.65602 -0.0306411 1.99261 -5.2894e-007 3.16187e-006 3.01161 -8.03009 -4.95139 -0.697639 -87.5046 85.1943 -95.4949 180 -1.52583e-005 179.536 -179.21 55.8162 176.997 4.92866e-006 3.15806e-006 1.04872 -20.6077 70.0534 21.4235 8.13649 25.2327 -3.48773 70.3152 86.6293 115.188 4.54188e-006 -4.6773e-006 -0.465697 4.22199 -53.9707 4.20048 2.21723e-006 7.55545e-007 -0.750967 17.0771 65.205 -17.4547 -8.13648 25.2326 3.48773 
48.3891 69.1863 4.32052 -9.39739 35.1985 10.5579 1.07155 1.66644 0.157519 2.15063 7.33737 0.14346 2.15426 8.98179 0.107295 -5.31576 22.2173 -2.49816 7.61361 2.39098 -4.25103 71.9704 1.64067 -0.688904 109.477 33.5075 -14.9877 7.15625e-015 -3.18055e-015 -3.18055e-015 -3.66758 -0.0339892 -1.99291 -1.65057e-006 -4.03589e-007 -3.0116 8.03008 -4.95138 0.697633 -69.2489 -2.88586 2.61724 -112.346 35.7923 17.7469 -2.62529e-005 -7.03926e-008 2.60515e-006 3.65529 -0.0306413 1.99261 -5.2894e-007 3.16187e-006 3.01161 -8.03009 -4.95139 -0.697639 -89.7025 85.17 -93.3027 180 -1.52583e-005 179.536 -179.205 55.6638 177.004 4.92866e-006 3.15806e-006 1.04642 -20.6123 70.0596 21.4293 8.13649 25.2327 -3.48773 73.3621 86.7201 112.151 4.54188e-006 -4.6773e-006 -0.465747 4.19458 -53.8244 4.17251 2.21723e-006 7.55545e-007 -0.746591 17.0798 65.2122 -17.4597 -8.13648 25.2326 3.48773 
48.3916 69.282 4.38234 -9.38078 35.1815 10.5333 1.06956 1.66437 0.15745 2.14663 7.33297 0.143624 2.15025 8.97739 0.107557 -5.33636 22.1878 -2.49421 7.65049 2.41714 -4.25385 72.0618 1.70077 -0.672155 109.353 33.5297 -14.8766 1.11319e-014 0 -3.18055e-015 -3.66894 -0.0341237 -1.99292 -1.65057e-006 -4.03589e-007 -3.0116 8.03008 -4.95138 0.697633 -69.3104 -2.87549 2.61706 -112.234 35.8181 17.6493 -2.62529e-005 -7.03926e-008 2.60515e-006 3.65457 -0.0306415 1.99261 -5.2894e-007 3.16187e-006 3.01161 -8.03009 -4.95139 -0.697639 -91.8727 85.1405 -91.1379 180 -1.52583e-005 179.536 -179.202 55.5116 177.013 4.92866e-006 3.15806e-006 1.04404 -20.6169 70.0657 21.4351 8.13649 25.2327 -3.48773 76.5666 86.8 108.957 4.54188e-006 -4.6773e-006 -0.465813 4.16784 -53.6782 4.14498 2.21723e-006 7.55545e-007 -0.74227 17.0826 65.2195 -17.4647 -8.13648 25.2326 3.48773 
48.3978 69.3611 4.45891 -9.36409 35.1641 10.5091 1.0677 1.66211 0.157374 2.14289 7.32819 0.143766 2.1465 8.97261 0.107793 -5.35701 22.1575 -2.49007 7.68567 2.44452 -4.25664 72.1499 1.75983 -0.655545 109.233 33.5514 -14.7686 -2.94201e-014 -2.54444e-014 9.54166e-015 -3.67026 -0.0342576 -1.99293 -1.65057e-006 -4.03589e-007 -3.0116 8.03008 -4.95138 0.697633 -69.3674 -2.86556 2.61673 -112.129 35.8425 17.558 -2.62529e-005 -7.03926e-008 2.60515e-006 3.65387 -0.0306417 1.99261 -5.2894e-007 3.16187e-006 3.01161 -8.03009 -4.95139 -0.697639 -94.012 85.1062 -89.0034 180 -1.52583e-005 179.536 -179.201 55.3597 177.022 4.92866e-006 3.15806e-006 1.04155 -20.6215 70.0719 21.441 8.13649 25.2327 -3.48773 79.912 86.8682 105.622 4.54188e-006 -4.6773e-006 -0.465899 4.14177 -53.5324 4.1179 2.21723e-006 7.55545e-007 -0.738017 17.0855 65.2269 -17.4699 -8.13648 25.2326 3.48773 
48.3964 69.4373 4.53507 -9.34734 35.1465 10.4854 1.06598 1.65965 0.157288 2.13942 7.32305 0.143885 2.14303 8.96747 0.107999 -5.377 22.1264 -2.48597 7.71824 2.47329 -4.25942 72.2349 1.81743 -0.639268 109.116 33.5727 -14.6639 8.74653e-015 0 -3.18055e-015 -3.67153 -0.0343909 -1.99294 -1.65057e-006 -4.03589e-007 -3.0116 8.03008 -4.95138 0.697633 -69.4192 -2.85594 2.61613 -112.033 35.8654 17.4739 -2.62529e-005 -7.03926e-008 2.60515e-006 3.65321 -0.0306418 1.99261 -5.2894e-007 3.16187e-006 3.01161 -8.03009 -4.95139 -0.697639 -96.1178 85.0677 -86.9019 180 -1.52583e-005 179.536 -179.202 55.2079 177.033 4.92866e-006 3.15806e-006 1.03894 -20.626 70.078 21.4469 8.13649 25.2327 -3.48773 83.3757 86.9239 102.168 4.54188e-006 -4.6773e-006 -0.466005 4.11634 -53.3868 4.09126 2.21723e-006 7.55545e-007 -0.73385 17.0886 65.2345 -17.4751 -8.13648 25.2326 3.48773 
48.3968 69.5279 4.60648 -9.33056 35.1287 10.4625 1.0644 1.65699 0.157193 2.13624 7.31753 0.143978 2.13984 8.96195 0.10817 -5.39558 22.0943 -2.48215 7.74727 2.50364 -4.26217 72.3166 1.87313 -0.623517 109.004 33.5939 -14.5629 5.56597e-015 0 -9.54166e-015 -3.6727 -0.0345235 -1.99295 -1.65057e-006 -4.03589e-007 -3.0116 8.03008 -4.95138 0.697633 -69.4651 -2.84651 2.61513 -111.945 35.8865 17.3979 -2.62529e-005 -7.03926e-008 2.60515e-006 3.65261 -0.030642 1.99261 -5.2894e-007 3.16187e-006 3.01161 -8.03009 -4.95139 -0.697639 -98.1887 85.0253 -84.835 180 -1.52583e-005 179.536 -179.205 55.0564 177.044 4.92866e-006 3.15806e-006 1.03619 -20.6305 70.084 21.4527 8.13649 25.2327 -3.48773 86.928 86.9665 98.6255 4.54188e-006 -4.6773e-006 -0.466134 4.09155 -53.2416 4.06507 2.21723e-006 7.55545e-007 -0.729783 17.0918 65.2423 -17.4805 -8.13648 25.2326 3.48773 
48.3803 69.5758 4.66475 -9.31375 35.1108 10.4404 1.06297 1.65413 0.157087 2.13336 7.31163 0.144043 2.13695 8.95605 0.108304 -5.41201 22.0611 -2.47885 7.77184 2.53574 -4.26491 72.3951 1.92652 -0.608483 108.895 33.6151 -14.4656 -8.74653e-015 0 -0 -3.67377 -0.0346552 -1.99296 -1.65057e-006 -4.03589e-007 -3.0116 8.03008 -4.95138 0.697633 -69.5044 -2.83718 2.61363 -111.868 35.9056 17.331 -2.62529e-005 -7.03926e-008 2.60515e-006 3.65208 -0.0306422 1.99261 -5.2894e-007 3.16187e-006 3.01161 -8.03009 -4.95139 -0.697639 -100.224 84.9796 -82.8032 180 -1.52583e-005 179.537 -179.211 54.9052 177.056 4.92866e-006 3.15806e-006 1.03329 -20.6348 70.0899 21.4586 8.13649 25.2327 -3.48773 90.5346 86.9957 95.0286 4.54188e-006 -4.6773e-006 -0.466286 4.06739 -53.0969 4.03933 2.21723e-006 7.55545e-007 -0.725831 17.0952 65.2504 -17.4861 -8.13648 25.2326 3.48773 
48.389 69.6698 4.73381 -9.29695 35.0927 10.4192 1.0617 1.65106 0.156969 2.13079 7.30536 0.144076 2.13437 8.94979 0.108397 -5.42556 22.0268 -2.47631 7.79102 2.56975 -4.26762 72.4703 1.97717 -0.594361 108.79 33.6365 -14.3724 -4.77083e-015 0 -0 -3.6747 -0.0347859 -1.99297 -1.65057e-006 -4.03589e-007 -3.0116 8.03008 -4.95138 0.697633 -69.5364 -2.82781 2.61149 -111.801 35.9224 17.2741 -2.62529e-005 -7.03926e-008 2.60515e-006 3.65165 -0.0306424 1.99261 -5.2894e-007 3.16187e-006 3.01161 -8.03009 -4.95139 -0.697639 -102.223 84.9311 -80.8069 180 -1.52583e-005 179.537 -179.218 54.7543 177.07 4.92866e-006 3.15806e-006 1.03021 -20.639 70.0957 21.4643 8.13649 25.2327 -3.48773 94.1571 87.0112 91.4156 4.54188e-006 -4.6773e-006 -0.466465 4.04384 -52.9528 4.01404 2.21723e-006 7.55545e-007 -0.722011 17.0989 65.2587 -17.4918 -8.13648 25.2326 3.48773 
48.389 69.7381 4.79921 -9.28019 35.0749 10.3993 1.06059 1.64766 0.156839 2.12857 7.29848 0.144089 2.13214 8.94291 0.108461 -5.43739 21.9902 -2.47467 7.80658 2.60714 -4.2709 72.5424 2.02557 -0.580975 108.689 33.6582 -14.2827 4.77083e-015 -3.18055e-015 -6.36111e-015 -3.6756 -0.0349161 -1.99298 -1.65057e-006 -4.03589e-007 -3.0116 8.03008 -4.95138 0.697633 -69.561 -2.81838 2.6087 -111.746 35.9367 17.2269 -2.62529e-005 -7.03926e-008 2.60515e-006 3.65129 -0.0306426 1.99261 -5.2894e-007 3.16187e-006 3.01161 -8.03009 -4.95139 -0.697639 -104.181 84.881 -78.8517 180 -1.52583e-005 179.537 -179.23 54.604 177.086 4.92866e-006 3.15806e-006 1.02692 -20.6433 70.1016 21.4703 8.13649 25.2327 -3.48773 97.7529 87.0129 87.8292 4.54188e-006 -4.6773e-006 -0.466671 4.02095 -52.8089 3.98916 2.21723e-006 7.55545e-007 -0.71831 17.1027 65.2672 -17.4976 -8.13648 25.2326 3.48773 
